{
  "accessors": [
    {
      "bufferView": 2,
      "componentType": 5126,
      "count": 577,
      "max": [
        51.08686828613281,
        2.9431533813476563,
        51.08681106567383
      ],
      "min": [
        -51.08682632446289,
        -50.0,
        -51.08681106567383
      ],
      "type": "VEC3"
    },
    {
      "bufferView": 2,
      "byteOffset": 6924,
      "componentType": 5126,
      "count": 577,
      "max": [
        0.9992961883544922,
        0.9408232569694519,
        0.9992961287498474
      ],
      "min": [
        -0.9992961287498474,
        -1.0,
        -0.9992961287498474
      ],
      "type": "VEC3"
    },
    {
      "bufferView": 3,
      "componentType": 5126,
      "count": 577,
      "max": [
        0.9798296093940735,
        0.9987618327140808,
        0.9450397491455078,
        1.0
      ],
      "min": [
        -0.9487407207489014,
        -0.9987627267837524,
        -0.9906326532363892,
        1.0
      ],
      "type": "VEC4"
    },
    {
      "bufferView": 1,
      "componentType": 5126,
      "count": 577,
      "max": [
        1.0,
        1.0
      ],
      "min": [
        0.0,
        0.0
      ],
      "type": "VEC2"
    },
    {
      "bufferView": 0,
      "componentType": 5125,
      "count": 2592,
      "type": "SCALAR"
    },
    {
      "bufferView": 2,
      "byteOffset": 13848,
      "componentType": 5126,
      "count": 481,
      "max": [
        50.46644973754883,
        50.0,
        50.46641540527344
      ],
      "min": [
        -50.46641159057617,
        2.9431533813476563,
        -50.466400146484375
      ],
      "type": "VEC3"
    },
    {
      "bufferView": 2,
      "byteOffset": 19620,
      "componentType": 5126,
      "count": 481,
      "max": [
        0.9991379380226135,
        1.0,
        0.9991379976272583
      ],
      "min": [
        -0.9991379380226135,
        -0.906450629234314,
        -0.9991379976272583
      ],
      "type": "VEC3"
    },
    {
      "bufferView": 3,
      "byteOffset": 9232,
      "componentType": 5126,
      "count": 481,
      "max": [
        0.9997605085372925,
        0.9989567399024963,
        0.9362924098968506,
        1.0
      ],
      "min": [
        -0.905890941619873,
        -0.9989548921585083,
        -0.9541721343994141,
        1.0
      ],
      "type": "VEC4"
    },
    {
      "bufferView": 1,
      "byteOffset": 4616,
      "componentType": 5126,
      "count": 481,
      "max": [
        1.0,
        1.0
      ],
      "min": [
        0.0,
        0.0
      ],
      "type": "VEC2"
    },
    {
      "bufferView": 0,
      "byteOffset": 10368,
      "componentType": 5125,
      "count": 2208,
      "type": "SCALAR"
    }
  ],
  "asset": {
    "extras": {
      "author": "RasenDan (https://sketchfab.com/RasenDan)",
      "license": "CC-BY-4.0 (http://creativecommons.org/licenses/by/4.0/)",
      "source": "https://sketchfab.com/3d-models/gachapon-ball-471a501039ae4758969137955c7e2ebd",
      "title": "Gachapon ball"
    },
    "generator": "Sketchfab-12.66.0",
    "version": "2.0"
  },
  "bufferViews": [
    {
      "buffer": 0,
      "byteLength": 19200,
      "name": "floatBufferViews",
      "target": 34963
    },
    {
      "buffer": 0,
      "byteLength": 8464,
      "byteOffset": 19200,
      "byteStride": 8,
      "name": "floatBufferViews",
      "target": 34962
    },
    {
      "buffer": 0,
      "byteLength": 25392,
      "byteOffset": 27664,
      "byteStride": 12,
      "name": "floatBufferViews",
      "target": 34962
    },
    {
      "buffer": 0,
      "byteLength": 16928,
      "byteOffset": 53056,
      "byteStride": 16,
      "name": "floatBufferViews",
      "target": 34962
    }
  ],
  "buffers": [
    {
      "byteLength": 69984,
      "uri": "scene.bin"
    }
  ],
  "images": [
    {
      "uri": "textures/Ball_Base_Material_baseColor.png"
    },
    {
      "uri": "textures/Ball_Base_Material_metallicRoughness.png"
    },
    {
      "uri": "textures/Ball_Base_Material_normal.png"
    },
    {
      "uri": "textures/Ball_Lid_Material_baseColor.png"
    },
    {
      "uri": "textures/Ball_Lid_Material_metallicRoughness.png"
    },
    {
      "uri": "textures/Ball_Lid_Material_normal.png"
    }
  ],
  "materials": [
    {
      "doubleSided": true,
      "name": "Ball_Base_Material",
      "normalTexture": {
        "index": 2
      },
      "pbrMetallicRoughness": {
        "baseColorTexture": {
          "index": 0
        },
        "metallicRoughnessTexture": {
          "index": 1
        }
      }
    },
    {
      "alphaMode": "BLEND",
      "doubleSided": true,
      "name": "Ball_Lid_Material",
      "normalTexture": {
        "index": 5
      },
      "pbrMetallicRoughness": {
        "baseColorTexture": {
          "index": 3
        },
        "metallicFactor": 0.5306851139120442,
        "metallicRoughnessTexture": {
          "index": 4
        }
      }
    }
  ],
  "meshes": [
    {
      "name": "Ball_Mesh_Ball_Base_Material_0",
      "primitives": [
        {
          "attributes": {
            "NORMAL": 1,
            "POSITION": 0,
            "TANGENT": 2,
            "TEXCOORD_0": 3
          },
          "indices": 4,
          "material": 0,
          "mode": 4
        }
      ]
    },
    {
      "name": "Ball_Mesh_Ball_Lid_Material_0",
      "primitives": [
        {
          "attributes": {
            "NORMAL": 6,
            "POSITION": 5,
            "TANGENT": 7,
            "TEXCOORD_0": 8
          },
          "indices": 9,
          "material": 1,
          "mode": 4
        }
      ]
    }
  ],
  "nodes": [
    {
      "children": [
        1
      ],
      "matrix": [
        1.0,
        0.0,
        0.0,
        0.0,
        0.0,
        2.220446049250313e-16,
        -1.0,
        0.0,
        0.0,
        1.0,
        2.220446049250313e-16,
        0.0,
        0.0,
        0.0,
        0.0,
        1.0
      ],
      "name": "Sketchfab_model"
    },
    {
      "children": [
        2
      ],
      "matrix": [
        1.0,
        0.0,
        0.0,
        0.0,
        0.0,
        0.0,
        1.0,
        0.0,
        0.0,
        -1.0,
        0.0,
        0.0,
        0.0,
        0.0,
        0.0,
        1.0
      ],
      "name": "Ball_mesh.fbx"
    },
    {
      "children": [
        3
      ],
      "name": "RootNode"
    },
    {
      "children": [
        4,
        5
      ],
      "matrix": [
        1.0,
        0.0,
        0.0,
        0.0,
        0.0,
        1.0,
        0.0,
        0.0,
        0.0,
        0.0,
        1.0,
        0.0,
        0.0,
        0.29755309224128723,
        0.0,
        1.0
      ],
      "name": "Ball_Mesh"
    },
    {
      "mesh": 0,
      "name": "Ball_Mesh_Ball_Base_Material_0"
    },
    {
      "mesh": 1,
      "name": "Ball_Mesh_Ball_Lid_Material_0"
    }
  ],
  "samplers": [
    {
      "magFilter": 9729,
      "minFilter": 9987,
      "wrapS": 10497,
      "wrapT": 10497
    }
  ],
  "scene": 0,
  "scenes": [
    {
      "name": "Sketchfab_Scene",
      "nodes": [
        0
      ]
    }
  ],
  "textures": [
    {
      "sampler": 0,
      "source": 0
    },
    {
      "sampler": 0,
      "source": 1
    },
    {
      "sampler": 0,
      "source": 2
    },
    {
      "sampler": 0,
      "source": 3
    },
    {
      "sampler": 0,
      "source": 4
    },
    {
      "sampler": 0,
      "source": 5
    }
  ]
}
